<svg width="42" height="41" viewBox="0 0 42 41" fill="none" xmlns="http://www.w3.org/2000/svg">
<path d="M14.45 1.16003V39.34C6.58995 36.57 0.949951 29.07 0.949951 20.25C0.949951 11.43 6.58995 3.93003 14.45 1.16003Z" fill="#002395"/>
<path d="M27.95 1.16003V39.34C25.83 40.1 23.56 40.5 21.2 40.5C18.84 40.5 16.57 40.09 14.45 39.34V1.16003C16.57 0.400034 18.84 0 21.2 0C23.56 0 25.83 0.410034 27.95 1.16003Z" fill="white"/>
<path d="M41.45 20.25C41.45 29.07 35.81 36.57 27.95 39.34V1.16003C35.81 3.93003 41.45 11.43 41.45 20.25Z" fill="#ED2939"/>
</svg>
