<svg width="23" height="20" viewBox="0 0 23 20" fill="none" xmlns="http://www.w3.org/2000/svg">
<g clip-path="url(#clip0_287_1013)">
<circle cx="15.4167" cy="6.25" r="6.25" fill="#FFE1AA"/>
<path d="M14.7921 3.61002L15.5616 2.28726L21.7346 1.11682L21.5195 0L16.3183 0.986153L15.4753 1.14577L14.8315 1.26788L14.1698 2.40483L14.0744 2.56898L13.4689 3.61002H0L10.5811 15.1178V18.8371H4.77089V20.0003H17.5368V18.8371H11.7268V15.1178L22.3077 3.61002H14.7921ZM11.154 14.0786L5.71918 7.92976H16.5885L11.154 14.0786ZM17.7344 6.79255H4.57326L2.5884 4.74723H12.8073H14.1305H19.6432L17.7344 6.79255Z" fill="#011350"/>
<path d="M9.76703 10.5C10.1512 10.5 10.4626 10.1909 10.4626 9.80967C10.4626 9.42841 10.1512 9.11934 9.76703 9.11934C9.38285 9.11934 9.07141 9.42841 9.07141 9.80967C9.07141 10.1909 9.38285 10.5 9.76703 10.5Z" fill="#011350"/>
<path d="M12.5409 10.5C12.9251 10.5 13.2365 10.1909 13.2365 9.80967C13.2365 9.42841 12.9251 9.11933 12.5409 9.11933C12.1567 9.11933 11.8453 9.42841 11.8453 9.80967C11.8453 10.1909 12.1567 10.5 12.5409 10.5Z" fill="#011350"/>
<path d="M11.154 12.6871C11.5382 12.6871 11.8496 12.378 11.8496 11.9967C11.8496 11.6155 11.5382 11.3064 11.154 11.3064C10.7698 11.3064 10.4584 11.6155 10.4584 11.9967C10.4584 12.378 10.7698 12.6871 11.154 12.6871Z" fill="#011350"/>
</g>
<defs>
<clipPath id="clip0_287_1013">
<rect width="22.3077" height="20" fill="white"/>
</clipPath>
</defs>
</svg>
