<svg width="46" height="34" viewBox="0 0 46 34" fill="none" xmlns="http://www.w3.org/2000/svg">
<path d="M20.0208 26.798C20.0208 28.0885 19.0959 28.8941 17.9621 28.8941C16.8208 28.8941 15.9033 28.0885 15.9033 26.798C15.9033 25.5076 17.9621 22.9043 17.9621 22.9043C17.9621 22.9043 20.0208 25.5001 20.0208 26.798Z" fill="#0096FF"/>
<path d="M29.964 30.1696C29.964 32.2657 28.4721 33.5636 26.6297 33.5636C24.7873 33.5636 23.2954 32.2582 23.2954 30.1696C23.2954 28.0811 26.6297 23.8591 26.6297 23.8591C26.6297 23.8591 29.964 28.0736 29.964 30.1696Z" fill="#0096FF"/>
<path d="M11.3161 26.5667H9.58558C4.84151 26.5667 1 22.7252 1 17.9811C1 13.237 4.84151 9.39553 9.58558 9.39553C10.4956 9.39553 11.3683 9.53726 12.1889 9.79833C13.9194 4.92745 18.5516 1.43652 24.0118 1.43652C30.5162 1.43652 35.8719 6.382 36.5134 12.7224C36.8043 12.6851 37.0953 12.6627 37.3936 12.6627C41.2351 12.6627 44.3456 15.7732 44.3456 19.6147C44.3456 23.4562 41.2351 26.5667 37.3936 26.5667H33.3209" stroke="#011350" stroke-width="2" stroke-miterlimit="10" stroke-linecap="round"/>
</svg>
