<svg width="89" height="54" viewBox="0 0 89 54" fill="none" xmlns="http://www.w3.org/2000/svg">
<g clip-path="url(#clip0_1_263)">
<path d="M9.57 38.64H8.27C3.71 38.64 0 34.93 0 30.37C0 25.95 3.48 22.33 7.85 22.11C9.15 15.78 14.7 11.17 21.3 11.17C26.1 11.17 30.47 13.62 32.99 17.73C33.42 18.44 33.2 19.36 32.5 19.79C31.8 20.22 30.87 20 30.44 19.3C28.47 16.09 25.06 14.17 21.31 14.17C15.78 14.17 11.19 18.31 10.63 23.81L10.48 25.33L8.96 25.15C8.72 25.12 8.5 25.1 8.27 25.1C5.36 25.1 3 27.46 3 30.37C3 33.28 5.36 35.64 8.27 35.64H9.57C10.4 35.64 11.07 36.31 11.07 37.14C11.07 37.97 10.4 38.64 9.57 38.64Z" fill="#011350"/>
<path d="M62.16 53.84H24.88C17.71 53.84 11.87 48 11.87 40.83C11.87 33.66 17.71 27.82 24.88 27.82C25.75 27.82 26.61 27.91 27.46 28.08C30.38 21.49 36.95 17.16 44.22 17.16C53.19 17.16 60.71 23.53 62.27 32.2C68.18 32.26 72.98 37.09 72.98 43.02C72.98 48.98 68.13 53.84 62.16 53.84ZM24.88 30.82C19.36 30.82 14.87 35.31 14.87 40.83C14.87 46.35 19.36 50.84 24.88 50.84H62.16C66.47 50.84 69.98 47.33 69.98 43.02C69.98 38.71 66.47 35.2 62.16 35.2C61.87 35.2 61.56 35.22 61.17 35.27L59.65 35.46L59.5 33.93C58.71 26.08 52.14 20.15 44.24 20.15C37.77 20.15 31.97 24.25 29.8 30.36L29.31 31.72L27.93 31.28C26.93 30.98 25.91 30.82 24.88 30.82Z" fill="#011350"/>
<path d="M75.1 40.43C74.48 40.43 73.91 40.05 73.69 39.43C73.41 38.65 73.82 37.79 74.6 37.51C78.21 36.22 81.32 33.78 83.48 30.62C82.05 30.93 80.59 31.08 79.11 31.08C67.47 31.09 58 21.42 58 9.55C58 7.88 58.19 6.24 58.56 4.63C54.89 7.16 52.19 11.02 51.09 15.46C50.89 16.26 50.08 16.75 49.27 16.56C48.47 16.36 47.98 15.55 48.17 14.74C49.79 8.18 54.43 2.71 60.57 0.119998C61.13 -0.120002 61.79 0.00999817 62.22 0.439998C62.65 0.869998 62.78 1.53 62.53 2.09C61.52 4.46 61 6.97 61 9.55C61 19.77 69.12 28.09 79.11 28.09C81.49 28.09 83.81 27.62 86 26.69C86.56 26.45 87.21 26.58 87.65 27.01C88.08 27.44 88.21 28.1 87.96 28.66C85.62 34.11 81.11 38.37 75.6 40.34C75.44 40.4 75.27 40.43 75.1 40.43Z" fill="#FF9800"/>
</g>
<defs>
<clipPath id="clip0_1_263">
<rect width="88.08" height="53.84" fill="white"/>
</clipPath>
</defs>
</svg>
