<svg width="23" height="22" viewBox="0 0 23 22" fill="none" xmlns="http://www.w3.org/2000/svg">
<g clip-path="url(#clip0_1_469)">
<circle cx="8.75846" cy="12.375" r="6.875" fill="#FFE1AA"/>
<path d="M12.5384 11.5923V6.00244H11.2586V11.1165V12.4812L12.5384 12.9569L15.7135 14.087L16.1593 12.8878L12.5384 11.5923Z" fill="#011350"/>
<path d="M11.9668 2.79736C7.44388 2.79736 3.76415 6.47709 3.76415 11C3.76415 15.5229 7.44388 19.2026 11.9668 19.2026C16.4897 19.2026 20.1694 15.5229 20.1694 11C20.1694 6.47709 16.4897 2.79736 11.9668 2.79736ZM11.9668 17.8968C8.16404 17.8968 5.07057 14.8033 5.07057 11.0005C5.07057 7.1978 8.16404 4.10378 11.9668 4.10378C15.7695 4.10378 18.863 7.19725 18.863 11C18.863 14.8028 15.769 17.8968 11.9668 17.8968Z" fill="#011350"/>
<path d="M12.6744 2.0097V0H11.2586V2.0097C11.4921 1.99174 11.7284 1.98248 11.9668 1.98248C12.2047 1.98248 12.4409 1.99174 12.6744 2.0097Z" fill="#011350"/>
<path d="M11.2586 19.9902V21.9999H12.6744V19.9902C12.4409 20.0082 12.2047 20.0175 11.9668 20.0175C11.7284 20.0175 11.4921 20.0082 11.2586 19.9902Z" fill="#011350"/>
<path d="M0.966797 10.2925V11.7078H2.97595C2.95799 11.4742 2.94873 11.238 2.94873 11.0001C2.94873 10.7622 2.95799 10.526 2.97595 10.2925H0.966797Z" fill="#011350"/>
<path d="M20.9571 10.2925C20.9751 10.526 20.9843 10.7622 20.9843 11.0001C20.9843 11.238 20.9751 11.4742 20.9571 11.7078H22.9668V10.2925H20.9571Z" fill="#011350"/>
<path d="M5.11248 16.8535L3.68795 18.2781L4.68899 19.2791L6.11298 17.8546C5.75371 17.5475 5.41894 17.2128 5.11248 16.8535Z" fill="#011350"/>
<path d="M17.8195 4.14621C18.1788 4.45268 18.5136 4.78745 18.8206 5.14671L20.2451 3.72217L19.2441 2.72168L17.8195 4.14621Z" fill="#011350"/>
<path d="M6.11352 4.14621L4.68899 2.72168L3.68795 3.72217L5.11248 5.14671C5.41949 4.78745 5.75426 4.45268 6.11352 4.14621Z" fill="#011350"/>
<path d="M17.8201 17.8546L19.2441 19.2791L20.2451 18.2781L18.8206 16.8535C18.5141 17.2128 18.1793 17.5475 17.8201 17.8546Z" fill="#011350"/>
</g>
<defs>
<clipPath id="clip0_1_469">
<rect width="22" height="22" fill="white" transform="translate(0.966797)"/>
</clipPath>
</defs>
</svg>
