<svg width="23" height="22" viewBox="0 0 23 22" fill="none" xmlns="http://www.w3.org/2000/svg">
<g clip-path="url(#clip0_1_458)">
<circle cx="7.30371" cy="12.375" r="6.875" fill="#FFE1AA"/>
<path d="M21.2673 13.5758L22.4287 12.8912L21.8161 11.8081L21.2673 12.1316L20.0422 12.8535L13.4664 16.7293H0.428711V17.98H3.27265V22H4.49806V17.98H11.3443H13.7946H20.0422V22H21.2673V17.98H22.4287V16.7293H21.2673V13.5758ZM15.9167 16.7293L20.0422 14.2978V16.7293H15.9167Z" fill="#011350"/>
<path d="M14.3456 5.02643L10.2879 0.884542L9.42171 0L8.55548 0.884542L4.49779 5.02643L3.27264 6.27709H8.75596V14.8758H9.98138V6.27709H15.5708L14.3456 5.02643ZM6.23025 5.02643L9.42171 1.76881L12.6129 5.02643H6.23025Z" fill="#011350"/>
</g>
<defs>
<clipPath id="clip0_1_458">
<rect width="22" height="22" fill="white" transform="translate(0.428711)"/>
</clipPath>
</defs>
</svg>
